<svg width="24" height="24" viewBox="0 0 24 24" fill="none" xmlns="http://www.w3.org/2000/svg">
<path d="M21.9003 9.48015C21.7844 9.12928 21.5735 8.81739 21.2911 8.57909C21.0086 8.34079 20.6657 8.1854 20.3003 8.13015L15.8303 7.45015L13.8303 3.15015C13.6688 2.80656 13.4128 2.51604 13.0923 2.31254C12.7718 2.10904 12.4 2.00098 12.0203 2.00098C11.6407 2.00098 11.2689 2.10904 10.9483 2.31254C10.6278 2.51604 10.3718 2.80656 10.2103 3.15015L8.21033 7.45015L3.70033 8.13015C3.33495 8.1854 2.99202 8.34079 2.70959 8.57909C2.42716 8.81739 2.21628 9.12928 2.10033 9.48015C1.99045 9.82486 1.97613 10.1929 2.0589 10.5451C2.14166 10.8973 2.31842 11.2205 2.57033 11.4802L5.86033 14.8602L5.08033 19.6502C5.02106 20.0193 5.06648 20.3978 5.21142 20.7424C5.35636 21.0871 5.59503 21.3843 5.90033 21.6002C6.23554 21.8517 6.64131 21.9917 7.06033 22.0002C7.41011 22.0085 7.75564 21.9221 8.06033 21.7502L12.0603 19.5502L16.0603 21.7502C16.365 21.9221 16.7106 22.0085 17.0603 22.0002C17.4761 22.0004 17.8815 21.871 18.2203 21.6302C18.5256 21.4143 18.7643 21.1171 18.9092 20.7724C19.0542 20.4278 19.0996 20.0493 19.0403 19.6802L18.2603 14.8902L21.5503 11.5102C21.7873 11.2354 21.9451 10.9013 22.0068 10.5437C22.0684 10.1861 22.0316 9.81844 21.9003 9.48015Z" fill="#FFD947"/>
</svg>
