<svg width="21" height="21" viewBox="0 0 21 21" fill="none" xmlns="http://www.w3.org/2000/svg">
<mask id="mask0_218_185547" style="mask-type:alpha" maskUnits="userSpaceOnUse" x="0" y="0" width="21" height="21">
<path d="M19.9101 7.48308C19.7941 7.13221 19.5833 6.82032 19.3008 6.58202C19.0184 6.34372 18.6755 6.18833 18.3101 6.13308L13.8401 5.45308L11.8401 1.15308C11.6786 0.80949 11.4226 0.518966 11.1021 0.315468C10.7816 0.111971 10.4098 0.00390625 10.0301 0.00390625C9.65044 0.00390625 9.27862 0.111971 8.9581 0.315468C8.63758 0.518966 8.38161 0.80949 8.2201 1.15308L6.2201 5.45308L1.7101 6.13308C1.34472 6.18833 1.00179 6.34372 0.71936 6.58202C0.43693 6.82032 0.226043 7.13221 0.110098 7.48308C0.000216039 7.82779 -0.014104 8.19585 0.0686632 8.54805C0.15143 8.90025 0.328185 9.2234 0.580098 9.48308L3.8701 12.8631L3.0901 17.6531C3.03083 18.0223 3.07624 18.4007 3.22119 18.7454C3.36613 19.0901 3.6048 19.3872 3.9101 19.6031C4.2453 19.8547 4.65107 19.9946 5.0701 20.0031C5.41988 20.0115 5.76541 19.9251 6.0701 19.7531L10.0701 17.5531L14.0701 19.7531C14.3748 19.9251 14.7203 20.0115 15.0701 20.0031C15.4858 20.0033 15.8913 19.874 16.2301 19.6331C16.5354 19.4172 16.7741 19.1201 16.919 18.7754C17.0639 18.4307 17.1094 18.0523 17.0501 17.6831L16.2701 12.8931L19.5601 9.51308C19.7971 9.2383 19.9549 8.90421 20.0165 8.54661C20.0782 8.18901 20.0414 7.82137 19.9101 7.48308Z" fill="#EBBC17"/>
</mask>
<g mask="url(#mask0_218_185547)">
<rect x="-3.99219" y="0.00390625" width="16" height="20" fill="#FFD947"/>
</g>
</svg>
