<svg width="16" height="16" viewBox="0 0 16 16" fill="none" xmlns="http://www.w3.org/2000/svg">
<path d="M14.5999 6.3201C14.5226 6.08619 14.382 5.87826 14.1937 5.7194C14.0054 5.56053 13.7768 5.45693 13.5332 5.4201L10.5532 4.96677L9.2199 2.1001C9.11222 1.87104 8.94157 1.67736 8.72789 1.54169C8.51422 1.40603 8.26634 1.33398 8.01323 1.33398C7.76012 1.33398 7.51224 1.40603 7.29857 1.54169C7.08489 1.67736 6.91424 1.87104 6.80656 2.1001L5.47323 4.96677L2.46656 5.4201C2.22298 5.45693 1.99436 5.56053 1.80607 5.7194C1.61778 5.87826 1.47719 6.08619 1.3999 6.3201C1.32664 6.54991 1.31709 6.79528 1.37227 7.03008C1.42745 7.26488 1.54529 7.48031 1.71323 7.65344L3.90656 9.90677L3.38656 13.1001C3.34705 13.3462 3.37733 13.5985 3.47395 13.8283C3.57058 14.0581 3.7297 14.2562 3.93323 14.4001C4.1567 14.5678 4.42721 14.6611 4.70656 14.6668C4.93975 14.6723 5.1701 14.6148 5.37323 14.5001L8.0399 13.0334L10.7066 14.5001C10.9097 14.6148 11.14 14.6723 11.3732 14.6668C11.6504 14.6669 11.9207 14.5807 12.1466 14.4201C12.3501 14.2762 12.5092 14.0781 12.6058 13.8483C12.7025 13.6185 12.7327 13.3662 12.6932 13.1201L12.1732 9.92677L14.3666 7.67344C14.5246 7.49025 14.6298 7.26752 14.6709 7.02912C14.712 6.79072 14.6874 6.54563 14.5999 6.3201Z" fill="#E0E0E0"/>
</svg>